<?xml version="1.0" standalone="no"?>
<!DOCTYPE svg PUBLIC "-//W3C//DTD SVG 20010904//EN"
 "http://www.w3.org/TR/2001/REC-SVG-20010904/DTD/svg10.dtd">
<svg version="1.0" xmlns="http://www.w3.org/2000/svg"
 width="720.000000pt" height="880.000000pt" viewBox="0 0 720.000000 880.000000"
 preserveAspectRatio="xMidYMid meet">

<g transform="translate(0.000000,880.000000) scale(0.100000,-0.100000)"
fill="#000000" stroke="none">
<path d="M0 4400 l0 -4400 3600 0 3600 0 0 4400 0 4400 -3600 0 -3600 0 0
-4400z m3812 4066 c91 -18 172 -50 262 -104 37 -23 70 -42 72 -42 3 0 38 -22
80 -50 41 -27 79 -50 82 -50 4 0 59 -32 122 -71 63 -40 129 -80 145 -89 129
-76 312 -186 370 -223 39 -25 84 -52 100 -61 17 -9 46 -27 66 -39 19 -12 69
-42 110 -66 41 -24 106 -64 144 -88 39 -24 77 -48 85 -53 15 -10 298 -180 485
-293 55 -33 137 -84 182 -114 l82 -55 3 -981 c2 -699 6 -991 14 -1012 35 -92
52 -483 27 -600 -6 -27 -16 -77 -23 -110 -32 -165 -94 -360 -150 -475 -10 -19
-25 -52 -33 -72 -9 -21 -21 -38 -27 -38 -11 0 -76 43 -141 93 -20 15 -41 27
-46 27 -6 0 -22 -15 -36 -33 -54 -70 -198 -207 -292 -277 l-60 -45 -6 -105
c-6 -111 -16 -158 -43 -209 -9 -17 -23 -45 -32 -61 -23 -45 -106 -122 -164
-154 -71 -38 -141 -56 -227 -56 -123 0 -204 28 -305 106 -31 24 -59 44 -63 44
-14 0 -367 -171 -470 -228 -143 -79 -175 -100 -329 -217 -65 -50 -124 -94
-131 -99 -9 -7 -30 3 -70 35 -99 77 -241 176 -340 236 -53 33 -255 143 -262
143 -2 0 -43 19 -91 41 -123 59 -171 79 -188 79 -8 0 -38 -17 -67 -39 -100
-75 -177 -101 -297 -101 -121 0 -214 34 -312 113 -45 36 -120 145 -136 197
-31 103 -34 123 -30 189 6 78 8 75 -92 151 -78 59 -133 112 -251 243 l-47 50
-30 -19 c-16 -10 -58 -38 -92 -62 -34 -24 -67 -41 -74 -39 -7 3 -18 24 -26 48
-7 24 -17 49 -22 55 -36 49 -128 321 -148 439 -5 33 -16 96 -25 140 -28 151
-18 401 25 660 5 28 9 474 9 992 1 876 2 943 18 959 19 19 130 91 189 123 22
12 68 39 104 61 36 22 71 43 77 48 7 4 45 28 85 53 60 38 206 126 347 209 14
9 45 28 68 43 24 15 45 27 48 27 4 0 25 13 48 29 54 37 469 287 526 317 24 13
49 28 57 35 17 14 142 90 219 133 18 10 46 28 120 73 294 181 380 222 500 242
80 14 227 12 307 -3z m-2581 -6084 c68 -24 99 -43 99 -60 0 -16 -57 -142 -64
-142 -3 0 -31 12 -63 27 -75 35 -230 45 -281 19 -110 -57 -39 -147 133 -171
133 -18 259 -85 295 -155 24 -47 27 -151 6 -201 -20 -46 -80 -102 -146 -135
-46 -23 -71 -28 -155 -32 -55 -2 -130 0 -166 6 -80 12 -216 67 -229 92 -7 13
-2 33 22 80 18 34 38 65 45 67 7 3 25 -4 40 -15 52 -37 150 -62 240 -62 92 0
131 13 152 53 11 21 10 29 -4 56 -17 33 -30 41 -105 61 -25 7 -56 16 -70 20
-14 4 -50 13 -80 19 -88 18 -160 61 -197 115 -29 42 -33 56 -33 114 0 140 80
224 255 266 48 12 251 -3 306 -22z m855 11 c10 -6 41 -20 68 -32 151 -68 238
-210 239 -390 1 -186 -91 -326 -268 -412 -46 -22 -62 -24 -190 -23 -137 0
-142 1 -209 33 -155 72 -256 230 -256 395 1 135 33 217 121 306 104 106 203
142 370 136 58 -2 114 -8 125 -13z m668 -10 c4 -9 6 -160 6 -334 -1 -175 1
-323 5 -329 4 -6 79 -10 205 -10 163 0 199 -3 203 -14 3 -8 3 -47 0 -85 l-6
-71 -307 0 c-238 0 -309 3 -312 13 -3 9 -2 793 2 840 0 4 45 7 99 7 83 0 100
-3 105 -17z m741 -413 l0 -425 -94 -3 c-69 -2 -97 1 -103 10 -9 16 -11 832 -1
842 4 4 50 5 103 4 l95 -3 0 -425z m731 413 c117 -28 238 -123 281 -221 69
-157 49 -340 -50 -465 -44 -54 -131 -109 -214 -135 -65 -21 -86 -22 -309 -20
l-239 3 -3 415 c-1 228 0 421 3 428 4 10 55 12 247 9 134 -2 261 -8 284 -14z
m672 -393 c1 -223 0 -415 -3 -428 -5 -22 -9 -23 -103 -20 l-97 3 -3 415 c-1
228 0 421 3 428 3 9 30 12 102 10 l98 -3 3 -405z m867 325 l0 -80 -130 -5
-130 -5 -5 -340 -5 -340 -100 0 -100 0 -3 342 -2 342 -133 3 -132 3 -3 69 c-2
38 -1 75 2 83 5 11 70 13 373 11 l368 -3 0 -80z m257 68 c17 -20 149 -235 183
-298 12 -22 27 -40 33 -40 11 0 84 114 184 290 l34 60 97 3 c74 2 97 0 97 -10
0 -17 -30 -69 -182 -319 l-125 -207 -6 -91 c-4 -49 -4 -110 -1 -135 4 -24 4
-56 0 -71 l-7 -26 -97 3 -97 3 -3 150 c-2 156 -5 167 -54 242 -15 23 -28 44
-28 47 0 3 -12 24 -27 48 -16 24 -33 52 -40 63 -6 11 -48 80 -92 153 -45 73
-81 137 -81 142 0 6 40 10 98 10 82 0 102 -3 114 -17z m-4040 -1112 c13 -5 35
-12 49 -15 41 -9 114 -80 145 -143 26 -52 29 -68 29 -153 -1 -107 -18 -158
-75 -224 -115 -131 -350 -125 -458 12 -51 64 -65 108 -65 212 0 102 12 144 60
207 33 43 72 71 131 93 52 20 148 25 184 11z m3807 -7 c63 -21 115 -66 140
-119 35 -75 31 -85 -38 -85 -56 0 -61 2 -82 33 -37 54 -59 67 -116 67 -106 0
-163 -69 -163 -197 1 -116 53 -190 142 -200 55 -6 96 13 134 62 25 33 30 35
85 35 32 0 60 -4 64 -10 17 -27 -61 -137 -119 -168 -140 -75 -277 -50 -384 69
-64 72 -83 250 -39 351 34 76 70 113 140 148 72 34 162 40 236 14z m-4973 -2
c11 -7 37 -86 54 -164 5 -26 16 -66 23 -90 8 -24 20 -62 26 -86 13 -46 26 -48
34 -5 3 16 19 78 37 138 17 61 36 128 41 150 15 57 25 65 85 65 60 0 62 -2 85
-85 33 -117 50 -180 61 -220 16 -63 30 -95 39 -95 5 0 9 9 9 20 0 10 7 45 16
77 20 74 53 209 61 250 8 46 23 54 90 51 55 -3 58 -4 56 -28 -2 -14 -7 -41
-12 -60 -33 -117 -53 -185 -76 -260 -15 -47 -35 -117 -45 -156 -28 -110 -31
-114 -100 -114 -68 0 -67 -1 -98 105 -11 39 -34 115 -50 170 -31 107 -51 128
-63 65 -4 -19 -17 -66 -29 -105 -11 -38 -29 -100 -39 -138 -11 -37 -24 -74
-31 -82 -13 -16 -106 -21 -126 -7 -9 6 -21 40 -54 157 -12 40 -43 149 -75 265
-15 52 -31 104 -36 115 -8 19 -13 51 -10 68 1 9 113 9 127 -1z m1900 -23 c117
-60 127 -227 21 -320 l-32 -28 28 -53 c36 -68 59 -110 81 -142 9 -15 14 -31
11 -36 -7 -12 -125 -13 -141 -2 -6 4 -36 54 -66 112 l-56 105 -45 3 c-55 4
-56 2 -60 -133 l-2 -90 -59 -3 c-33 -2 -62 1 -65 7 -5 8 -7 571 -2 605 0 5 77
7 170 4 155 -4 173 -6 217 -29z m352 -101 c1 -71 6 -128 10 -128 4 0 48 48 97
107 137 163 123 153 205 153 40 0 70 -4 70 -10 0 -10 -19 -33 -96 -120 -58
-65 -114 -136 -114 -145 0 -4 20 -36 45 -72 25 -35 45 -66 45 -68 0 -2 29 -43
65 -90 36 -48 65 -93 65 -101 0 -18 -129 -20 -152 -1 -16 12 -138 191 -138
202 0 4 -7 14 -16 23 -16 15 -19 14 -50 -22 -31 -36 -33 -43 -36 -125 l-3 -86
-65 0 -65 0 -3 295 c-1 162 0 301 3 308 3 9 23 12 67 10 l63 -3 3 -127z m889
109 c55 -29 73 -62 73 -134 0 -58 -3 -67 -30 -95 -16 -16 -30 -32 -30 -34 0
-2 20 -23 44 -47 36 -34 45 -51 51 -89 14 -95 -60 -180 -169 -193 -28 -3 -114
-5 -191 -3 l-140 3 -3 295 c-1 162 0 301 3 309 8 21 347 11 392 -12z m651 -11
c2 -15 1 -39 -2 -52 -6 -24 -7 -24 -151 -24 l-145 0 0 -70 0 -70 130 0 129 0
7 -37 c12 -63 3 -68 -140 -71 l-127 -3 3 -72 3 -72 145 -2 145 -1 0 -54 0 -53
-215 0 -215 0 -3 295 c-1 162 0 301 3 308 3 10 52 12 217 10 l213 -3 3 -29z
m248 26 c6 -4 49 -59 94 -122 46 -63 101 -140 124 -170 22 -30 42 -57 43 -59
13 -18 18 35 18 182 l0 172 65 0 65 0 0 -305 0 -305 -56 -3 c-66 -3 -49 -19
-195 188 -52 74 -105 149 -117 165 l-22 30 -5 -190 -5 -190 -59 -3 c-41 -2
-62 1 -67 10 -10 15 -12 592 -2 601 9 9 105 9 119 -1z m1342 -109 c2 -79 7
-114 16 -122 9 -8 54 -11 127 -9 l114 3 5 120 5 120 63 3 62 3 -2 -308 -3
-308 -60 0 -60 0 -5 125 -5 125 -125 0 -125 0 -5 -125 -5 -125 -65 0 -65 0 -3
295 c-1 162 0 301 3 308 3 9 23 12 67 10 l63 -3 3 -112z"/>
<path d="M3545 8368 c-149 -35 -252 -85 -514 -249 -51 -33 -94 -59 -96 -59 -2
0 -47 -28 -101 -61 -121 -77 -263 -159 -273 -159 -4 0 -16 -9 -26 -20 -10 -11
-22 -20 -27 -20 -5 0 -29 -13 -53 -30 -24 -16 -46 -30 -50 -30 -4 0 -25 -13
-48 -28 -23 -16 -49 -32 -57 -36 -8 -3 -38 -21 -67 -39 -141 -87 -231 -142
-258 -157 -88 -50 -146 -86 -282 -174 -40 -25 -74 -46 -77 -46 -2 0 -64 -37
-137 -81 -74 -45 -164 -100 -201 -122 l-68 -41 -3 -940 c-3 -810 -6 -954 -19
-1031 -32 -178 -40 -337 -23 -490 16 -157 25 -207 55 -315 11 -41 23 -88 27
-105 3 -16 9 -34 13 -40 4 -5 17 -37 30 -70 39 -101 33 -100 138 -30 38 25 73
45 78 45 5 0 34 -32 64 -72 81 -106 192 -214 310 -302 l105 -79 0 -126 c0
-130 3 -141 56 -230 70 -119 222 -183 377 -159 86 13 132 38 209 112 l62 59
63 -30 c454 -221 599 -299 723 -392 129 -96 165 -121 176 -121 7 0 35 17 63
38 106 79 165 122 169 122 3 0 31 18 63 39 79 52 111 70 314 172 235 117 346
169 366 169 8 0 38 -25 66 -56 121 -131 304 -159 458 -68 97 57 149 135 171
253 10 59 10 84 -1 138 l-13 67 30 25 c17 14 77 62 133 106 103 80 234 214
280 286 14 21 33 42 42 45 11 3 44 -14 90 -46 39 -28 78 -49 86 -48 16 3 64
118 94 223 10 39 24 86 29 105 29 100 59 319 59 433 0 92 -22 292 -42 387 -8
39 -13 324 -15 990 l-3 935 -23 15 c-84 53 -560 342 -722 437 -60 36 -147 90
-192 119 -46 30 -84 54 -86 54 -2 0 -63 36 -136 80 -73 44 -136 80 -140 80 -5
0 -16 9 -26 20 -10 11 -22 20 -26 20 -7 0 -321 188 -519 310 -83 51 -110 67
-187 111 -21 12 -49 29 -63 38 -14 10 -56 27 -95 39 -136 41 -243 51 -330 30z
m207 -179 c29 -6 57 -15 63 -20 5 -5 16 -9 25 -9 9 0 74 -36 144 -80 70 -44
194 -119 274 -166 81 -48 170 -102 197 -119 28 -18 75 -47 105 -64 30 -18 94
-56 141 -84 47 -29 141 -85 210 -126 68 -41 165 -100 214 -131 50 -31 169
-105 265 -162 96 -58 230 -139 297 -181 67 -41 144 -87 172 -102 l50 -28 3
-791 c2 -623 0 -798 -10 -822 -10 -25 -166 -224 -175 -224 -2 0 -38 33 -80 73
l-77 73 -2 739 -3 739 -350 212 c-192 117 -370 223 -395 237 -25 13 -103 60
-175 104 -245 150 -366 223 -371 223 -2 0 -21 11 -42 24 -230 146 -569 346
-585 346 -8 0 -25 -8 -38 -18 -13 -11 -80 -52 -149 -92 -69 -40 -159 -95 -200
-120 -91 -57 -321 -193 -335 -199 -5 -2 -29 -17 -52 -32 -23 -16 -46 -29 -52
-29 -6 0 -11 -4 -11 -8 0 -5 -24 -22 -52 -37 -29 -16 -99 -57 -156 -92 -57
-35 -106 -63 -108 -63 -3 0 -42 -24 -87 -53 -45 -29 -127 -79 -182 -111 -113
-66 -248 -148 -347 -213 -37 -23 -71 -43 -75 -43 -4 0 -21 -10 -37 -23 l-29
-23 2 -891 c1 -549 -2 -894 -8 -897 -12 -8 -203 216 -309 363 l-32 44 0 797
c0 746 1 798 18 812 9 9 55 37 102 63 47 27 109 63 137 82 29 18 57 33 62 33
5 0 14 7 21 15 6 8 41 31 77 51 36 20 84 49 107 64 22 15 57 35 76 46 35 18
147 87 247 151 29 18 55 33 57 33 3 0 42 23 88 51 79 50 168 103 772 469 148
89 286 169 305 178 98 41 195 51 293 31z m-23 -925 c35 -60 75 -129 88 -154
14 -25 42 -72 63 -105 34 -55 149 -248 190 -320 9 -16 45 -77 80 -135 35 -58
71 -118 80 -135 9 -16 47 -80 84 -141 36 -62 66 -116 66 -121 0 -5 -66 -47
-147 -93 -82 -46 -184 -107 -228 -135 -44 -28 -105 -64 -135 -79 -30 -16 -90
-50 -133 -77 -43 -27 -82 -49 -87 -49 -5 0 -48 24 -97 54 -48 29 -122 73 -163
97 -41 24 -82 48 -92 54 -9 5 -74 44 -145 84 -156 91 -233 140 -233 147 0 4
20 38 43 78 54 87 160 267 167 281 7 14 264 446 316 531 24 39 44 73 44 77 0
5 84 149 137 235 8 13 20 21 26 19 6 -2 40 -53 76 -113z m-658 -1379 c61 -36
112 -65 115 -65 3 0 51 -28 107 -63 185 -115 344 -207 357 -207 12 0 154 82
345 198 50 30 110 66 135 80 25 14 82 47 128 75 46 27 85 47 88 44 5 -4 -90
-149 -368 -556 -69 -102 -168 -248 -220 -323 -51 -76 -98 -138 -104 -138 -18
0 5 -33 -357 498 -321 471 -354 522 -341 522 3 0 55 -29 115 -65z m1794 -234
c89 -32 157 -81 298 -220 l127 -126 -5 -55 c-5 -45 -2 -61 14 -88 33 -51 77
-73 133 -66 46 6 48 5 102 -46 31 -29 56 -60 56 -68 0 -8 -39 -56 -87 -106
-49 -49 -104 -107 -124 -128 -20 -21 -41 -38 -46 -38 -5 0 -35 23 -66 51 -56
49 -57 52 -57 103 0 59 -28 112 -70 133 -36 18 -109 15 -155 -6 l-40 -18 -105
101 c-58 55 -106 106 -108 113 -2 6 4 32 12 58 48 139 -24 238 -207 285 -31 8
-81 11 -142 7 -107 -6 -112 0 -37 49 55 36 145 71 217 84 79 14 222 5 290 -19z
m-2197 -129 c95 -36 182 -126 219 -224 11 -30 16 -82 17 -175 l1 -133 163
-162 c89 -90 162 -168 162 -173 0 -13 -202 -215 -215 -215 -5 0 -79 69 -165
154 -85 85 -168 160 -184 166 -18 7 -61 8 -117 4 -76 -6 -98 -4 -160 16 -156
51 -256 180 -276 356 -5 50 10 124 27 124 4 0 58 -48 120 -106 109 -104 112
-106 148 -99 60 11 138 35 156 48 23 17 60 171 47 195 -5 9 -55 62 -110 117
-56 55 -101 103 -101 108 0 32 181 32 268 -1z m2071 -514 c130 -123 128 -104
25 -210 -171 -175 -231 -237 -459 -474 -199 -206 -355 -368 -562 -581 -74 -76
-93 -123 -93 -233 0 -49 3 -90 8 -90 4 0 22 24 40 53 36 58 253 287 271 287 6
0 33 -11 60 -25 34 -18 73 -28 140 -34 81 -7 96 -12 124 -37 66 -60 257 -249
257 -255 0 -4 -39 -25 -87 -49 -442 -212 -591 -293 -729 -397 -40 -29 -76 -53
-82 -53 -6 0 -30 15 -54 33 -139 106 -290 193 -568 328 -278 134 -275 132
-278 158 -7 49 11 78 111 174 l102 99 76 -5 c42 -3 98 -1 125 4 119 22 114 18
818 726 362 365 661 663 664 663 2 0 43 -37 91 -82z m-3340 40 c65 -105 302
-360 448 -483 45 -38 79 -73 75 -76 -4 -4 -45 -16 -91 -26 -47 -11 -86 -24
-88 -29 -5 -16 119 -157 188 -214 58 -49 125 -94 219 -150 25 -15 95 -46 155
-69 61 -23 122 -47 138 -53 15 -6 27 -16 26 -22 0 -6 -21 -28 -45 -48 -34 -29
-55 -38 -82 -38 -47 -1 -135 -37 -195 -80 l-46 -33 -83 54 c-121 79 -297 258
-387 394 -40 61 -79 111 -85 113 -6 1 -36 -16 -66 -38 -29 -22 -57 -40 -61
-40 -30 0 -89 335 -89 506 0 52 7 144 15 206 22 160 27 170 54 126z m4555
-111 c28 -187 19 -380 -28 -603 -18 -86 -32 -124 -46 -124 -6 0 -34 18 -62 40
-28 23 -56 39 -62 37 -6 -2 -29 -30 -50 -63 -75 -114 -145 -200 -222 -274 -90
-86 -188 -170 -198 -170 -4 0 -27 -14 -52 -31 l-44 -30 -58 34 c-31 19 -71 38
-88 41 -21 5 -54 30 -98 76 -36 37 -66 72 -66 77 0 5 30 19 68 32 214 72 430
222 584 404 49 57 48 59 -62 82 -41 9 -81 18 -89 21 -17 5 -15 7 109 113 112
95 262 253 353 370 56 72 82 99 88 90 4 -8 14 -63 23 -122z m-2484 -35 c82
-122 164 -234 176 -239 19 -7 28 5 124 145 45 67 87 122 91 122 5 0 9 -94 9
-210 l0 -209 -221 -223 c-133 -135 -223 -218 -227 -211 -4 6 -4 87 -1 179 4
93 7 285 8 427 1 141 4 257 9 257 4 0 18 -17 32 -38z m-198 -581 l-4 -143 -42
-42 c-22 -22 -72 -70 -111 -105 -38 -35 -168 -160 -287 -277 -179 -176 -218
-219 -218 -241 0 -54 -31 -156 -58 -194 -32 -47 -131 -99 -186 -99 -158 0
-278 175 -217 316 42 97 137 164 235 164 25 0 55 9 78 23 32 19 307 280 683
649 74 72 122 112 126 105 3 -7 4 -77 1 -156z m1226 -223 c54 -51 150 -144
215 -208 202 -198 228 -219 285 -237 106 -34 174 -121 174 -223 0 -161 -158
-259 -307 -189 -55 26 -75 50 -119 143 -31 65 -58 95 -295 330 -143 142 -261
263 -261 269 0 15 182 204 198 206 8 0 57 -40 110 -91z"/>
<path d="M4911 3491 c-43 -40 -43 -90 -1 -133 27 -27 36 -30 72 -25 53 7 69
25 75 80 5 41 2 49 -25 77 -40 39 -79 40 -121 1z"/>
<path d="M1850 2227 c-96 -33 -169 -132 -178 -242 -7 -92 59 -217 131 -248 18
-8 45 -19 60 -26 69 -28 185 -1 250 59 43 38 70 105 75 185 3 59 0 79 -21 125
-28 63 -71 110 -124 135 -45 22 -146 28 -193 12z"/>
<path d="M3912 1973 l3 -258 120 0 c164 0 213 22 273 125 24 39 27 56 27 131
0 78 -3 90 -30 135 -35 56 -95 101 -151 114 -21 5 -85 10 -142 10 l-102 0 2
-257z"/>
<path d="M1824 1139 c-52 -32 -79 -93 -79 -179 0 -64 4 -82 28 -123 30 -51 56
-66 122 -74 120 -14 194 99 166 256 -13 70 -34 102 -88 130 -33 17 -114 12
-149 -10z"/>
<path d="M2464 1147 c-3 -8 -4 -47 -2 -88 l3 -74 60 -3 c73 -4 99 2 125 30 32
35 23 103 -19 135 -23 18 -160 17 -167 0z"/>
<path d="M3702 1093 l3 -68 50 -3 c67 -4 112 5 136 29 26 26 24 61 -4 87 -20
19 -35 22 -106 22 l-82 0 3 -67z"/>
<path d="M3702 843 l3 -78 62 -3 c89 -4 138 11 153 48 10 24 10 36 0 60 -18
43 -37 50 -135 50 l-86 0 3 -77z"/>
</g>
</svg>
